<?xml version="1.0" standalone="no"?>
<!DOCTYPE svg PUBLIC "-//W3C//DTD SVG 20010904//EN"
 "http://www.w3.org/TR/2001/REC-SVG-20010904/DTD/svg10.dtd">
<svg version="1.0" xmlns="http://www.w3.org/2000/svg"
 width="315.000000pt" height="315.000000pt" viewBox="0 0 315.000000 315.000000"
 preserveAspectRatio="xMidYMid meet">
<metadata>
Created by potrace 1.14, written by Peter Selinger 2001-2017
</metadata>
<g transform="translate(0.000000,315.000000) scale(0.100000,-0.100000)"
fill="#000000" stroke="none">
<path d="M1385 2820 c-22 -16 -45 -29 -51 -30 -6 0 -16 -6 -22 -12 -7 -10 -4
-18 12 -29 21 -16 23 -16 35 13 7 16 32 43 54 59 22 16 34 29 26 29 -8 -1 -32
-14 -54 -30z"/>
<path d="M1124 2802 c-12 -9 -35 -24 -51 -33 -52 -28 -83 -80 -94 -156 -10
-73 -16 -116 -26 -175 -4 -27 -1 -45 11 -63 27 -41 78 -85 115 -101 37 -15
141 -31 141 -20 0 3 -33 22 -73 41 -89 43 -180 124 -170 152 14 37 67 119 92
141 l25 23 -23 6 c-21 5 -22 10 -17 47 4 23 11 43 16 44 6 2 10 8 10 14 0 5
16 30 36 54 39 48 41 53 8 26z"/>
<path d="M1391 2778 c-33 -32 -34 -44 -6 -97 12 -24 13 -23 34 33 34 92 24
115 -28 64z"/>
<path d="M1112 2725 c-33 -44 -39 -80 -13 -80 8 0 17 7 22 15 57 107 51 146
-9 65z"/>
<path d="M1242 2542 c-20 -6 6 -32 34 -32 22 0 41 16 31 26 -7 8 -49 12 -65 6z"/>
<path d="M1443 2433 c-14 -5 -18 -35 -7 -46 4 -3 15 -2 25 4 29 15 22 -4 -14
-39 -26 -25 -43 -33 -80 -35 -26 -1 -47 0 -47 3 0 3 -11 10 -25 17 -14 6 -25
8 -25 5 0 -15 57 -38 98 -41 39 -2 47 1 88 42 33 33 43 49 37 63 -10 29 -26
37 -50 27z"/>
<path d="M1913 2170 c-59 -30 -168 -127 -222 -200 -14 -19 -34 -44 -43 -54
-10 -11 -18 -25 -18 -32 0 -7 -7 -19 -15 -27 -44 -44 -168 -345 -182 -442 -11
-74 -5 -145 17 -190 21 -44 23 -45 133 -81 163 -54 172 -54 318 1 255 95 322
111 325 78 1 -7 2 -14 4 -15 5 -7 11 -46 12 -78 1 -44 -34 -148 -74 -220 -93
-166 -302 -394 -464 -506 -130 -90 -189 -117 -234 -110 -41 6 -67 -11 -57 -38
7 -18 220 -86 275 -89 48 -2 148 45 272 128 101 67 337 297 395 385 17 25 33
47 36 50 16 12 80 163 92 216 18 76 15 180 -6 220 -26 49 -83 93 -186 141
-175 82 -209 87 -338 58 -40 -9 -76 -16 -79 -15 -4 1 -10 -2 -13 -7 -6 -9
-144 -63 -161 -63 -10 0 -6 49 11 125 12 55 94 251 115 276 8 9 13 27 12 40
-2 16 2 23 11 21 8 -2 11 3 8 12 -4 9 15 44 48 87 30 40 55 76 55 80 0 4 14
12 30 18 17 5 29 16 28 22 -2 7 6 15 17 17 11 2 27 10 35 17 32 28 86 52 119
53 18 0 35 3 37 5 3 3 -7 18 -21 35 -27 32 -178 112 -212 112 -11 0 -47 -14
-80 -30z"/>
<path d="M1027 2083 c-19 -32 -28 -414 -11 -467 6 -18 7 -18 19 5 8 14 16 45
20 69 8 59 15 83 23 75 3 -3 12 5 19 17 12 22 12 21 13 -16 0 -46 11 -43 12 3
1 29 18 35 18 6 0 -8 6 -18 14 -22 12 -7 15 -60 17 -293 4 -354 0 -532 -12
-524 -5 3 -9 17 -10 32 0 26 -17 77 -18 57 -1 -5 -8 1 -17 13 -8 12 -12 27 -9
32 3 6 1 10 -4 10 -6 0 -11 -6 -12 -12 0 -7 -2 -38 -4 -70 -4 -65 -12 -98 -26
-98 -10 0 -11 5 -12 157 0 62 -2 111 -4 109 -2 -1 -11 -39 -19 -82 -18 -86
-20 -291 -8 -589 4 -93 8 -191 8 -217 -1 -26 3 -45 8 -42 4 3 8 -8 8 -24 0
-35 9 -45 27 -31 7 6 13 7 13 3 0 -10 85 -7 110 3 8 4 22 7 30 8 44 4 78 18
82 33 5 22 0 1729 -5 1762 -3 14 -5 30 -6 37 -1 12 -42 26 -106 37 -16 3 -57
10 -90 15 -33 6 -61 11 -62 11 -1 0 -4 -3 -6 -7z m98 -1188 c1 -25 -2 -45 -7
-45 -4 0 -8 10 -9 23 0 12 -2 31 -4 41 -4 22 4 41 13 31 3 -3 7 -26 7 -50z"/>
<path d="M1910 1820 c-12 -16 -18 -30 -13 -30 4 0 16 14 25 30 22 39 15 39
-12 0z"/>
<path d="M1152 1530 c0 -19 2 -27 5 -17 2 9 2 25 0 35 -3 9 -5 1 -5 -18z"/>
<path d="M1145 1390 c0 -55 3 -100 6 -100 4 0 6 45 6 100 0 55 -3 100 -7 100
-3 0 -6 -45 -5 -100z"/>
<path d="M1144 1261 c0 -11 4 -17 8 -15 4 3 8 12 8 20 0 8 -4 14 -8 14 -4 0
-8 -9 -8 -19z"/>
</g>
</svg>
